<svg id="Layer_1" data-name="Layer 1" xmlns="http://www.w3.org/2000/svg" viewBox="0 0 300 300"><defs><style>.cls-1{fill:#f8c89a;}.cls-2{fill:#5c371d;}.cls-3{fill:#4a3a3d;}.cls-4{fill:#1c1819;}.cls-5{fill:#eea88f;}.cls-6{fill:#fff;}.cls-7{fill:#e67c7c;}</style></defs><path class="cls-1" d="M69.7,212.23a79.48,79.48,0,0,1-6.92-19.82c-.4-1.93-.73-3.89-1-5.85a.7.7,0,0,0-.42-.6.84.84,0,0,0-.3-.45c-3.74-2.84-9.1-2.58-13-.28-4.15,2.42-6.88,6.78-8.29,11.28-1.54,4.93-1.41,10.48,1.29,15a14.1,14.1,0,0,0,5.08,5,16.83,16.83,0,0,0,6.74,2.08c5.12.51,10.2-1.24,14.56-3.81.55-.33,1.1-.68,1.64-1a.63.63,0,0,0,.29-.62A.66.66,0,0,0,69.7,212.23Z"/><path class="cls-2" d="M68.44,212.66c-4,2.63-8.61,4.68-13.48,4.75a14.69,14.69,0,0,1-11.77-5c-3-3.74-3.71-8.86-2.73-13.46a20,20,0,0,1,6.75-11.57c3.3-2.57,8.08-3.57,11.91-1.56a8.57,8.57,0,0,1,1.31.84.64.64,0,0,0,.65-1.1c-3.74-2.84-9.1-2.58-13-.28-4.15,2.42-6.88,6.78-8.29,11.28-1.54,4.93-1.41,10.48,1.29,15a14.1,14.1,0,0,0,5.08,5,16.83,16.83,0,0,0,6.74,2.08c5.12.51,10.2-1.24,14.56-3.81.55-.33,1.1-.68,1.64-1C69.77,213.31,69.13,212.2,68.44,212.66Z"/><path class="cls-2" d="M58.91,203.49a22.71,22.71,0,0,0-5.25-2.36,29,29,0,0,1,3-2.84.65.65,0,0,0,0-.9.68.68,0,0,0-.91,0,28.41,28.41,0,0,0-3.48,3.37,22.65,22.65,0,0,0-5.57-.61.64.64,0,0,0,0,1.27,22,22,0,0,1,4.65.44,27.9,27.9,0,0,0-3,4.6c-.38.72.72,1.37,1.1.64a27.55,27.55,0,0,1,3.26-4.91,21.16,21.16,0,0,1,5.52,2.4C59,205,59.6,203.92,58.91,203.49Z"/><path class="cls-1" d="M231.22,212.23a79.48,79.48,0,0,0,6.92-19.82c.4-1.93.73-3.89,1-5.85a.73.73,0,0,1,.43-.6.84.84,0,0,1,.3-.45c3.74-2.84,9.1-2.58,13-.28,4.15,2.42,6.88,6.78,8.29,11.28,1.54,4.93,1.41,10.48-1.29,15a14.1,14.1,0,0,1-5.08,5A16.83,16.83,0,0,1,248,218.6c-5.12.51-10.2-1.24-14.56-3.81-.56-.33-1.1-.68-1.65-1a.62.62,0,0,1-.28-.62A.66.66,0,0,1,231.22,212.23Z"/><path class="cls-2" d="M232.48,212.66c4,2.63,8.61,4.68,13.47,4.75a14.7,14.7,0,0,0,11.78-5c3-3.74,3.71-8.86,2.73-13.46a20,20,0,0,0-6.75-11.57c-3.3-2.57-8.08-3.57-11.91-1.56a8.57,8.57,0,0,0-1.31.84.64.64,0,0,1-.87-.23.64.64,0,0,1,.22-.87c3.74-2.84,9.1-2.58,13-.28,4.15,2.42,6.88,6.78,8.29,11.28,1.54,4.93,1.41,10.48-1.29,15a14.1,14.1,0,0,1-5.08,5A16.83,16.83,0,0,1,248,218.6c-5.12.51-10.2-1.24-14.56-3.81-.56-.33-1.1-.68-1.65-1S231.79,212.2,232.48,212.66Z"/><path class="cls-2" d="M242,203.49a22.71,22.71,0,0,1,5.25-2.36,29,29,0,0,0-3-2.84.65.65,0,0,1,0-.9.66.66,0,0,1,.9,0,27.8,27.8,0,0,1,3.49,3.37,22.65,22.65,0,0,1,5.57-.61.64.64,0,0,1,0,1.27,22,22,0,0,0-4.65.44,27.9,27.9,0,0,1,3,4.6c.38.72-.72,1.37-1.1.64a27.55,27.55,0,0,0-3.26-4.91,21.16,21.16,0,0,0-5.52,2.4C242,205,241.32,203.92,242,203.49Z"/><path class="cls-1" d="M240.43,184.09s0,0,0-.06a50.16,50.16,0,0,0-.07-5.88c-1.13-16-9.8-31-21.74-41.45-12.8-11.26-29.37-17.45-46-20.16a131.09,131.09,0,0,0-52.23,1.7c-16.18,4-31.39,12-42.65,24.47-10.25,11.34-17,26-17.35,41.37h0c.3,15.42,7.1,30,17.35,41.37,11.26,12.45,26.47,20.46,42.65,24.47a130.91,130.91,0,0,0,52.23,1.7c16.66-2.7,33.23-8.89,46-20.15,11.94-10.5,20.61-25.41,21.74-41.46a50,50,0,0,0,.07-5.87S240.43,184.11,240.43,184.09Z"/><path class="cls-2" d="M240.44,184.15c0-.82-1.31-.88-1.27-.06.73,15.9-6.4,31.23-17.3,42.53-11.59,12-27.3,19.13-43.45,22.62A133.64,133.64,0,0,1,153,252.11a127.87,127.87,0,0,1-25.84-2c-16.34-3-32.21-9.82-44.39-21.33-10.89-10.3-18.85-24-20.7-39a52.31,52.31,0,0,1-.39-5.58c0-.82-1.29-.89-1.28-.06.3,15.41,7.1,30,17.35,41.37,11.26,12.45,26.47,20.46,42.65,24.47a130.91,130.91,0,0,0,52.23,1.7c16.66-2.7,33.23-8.89,46-20.15,11.94-10.5,20.61-25.41,21.74-41.46A50,50,0,0,0,240.44,184.15Z"/><path class="cls-3" d="M272.61,146.48q-3.19-3.47-6-7.22a163.11,163.11,0,0,1-10.39-15.77c-3.23-5.47-6.28-11.06-9.41-16.59q-2.32-4.14-4.76-8.21c-.76-1.26-1.53-2.54-2.38-3.75a17.29,17.29,0,0,0,8.77-6A11.36,11.36,0,0,0,250,86.34a2.44,2.44,0,0,0-.66-2.79,4.63,4.63,0,0,0-3.08-.9c-1.23,0-2.45,0-3.68,0-4.83.06-9.71.11-14.43-1.08a56.65,56.65,0,0,1-12-4.88c-3.87-2-7.68-4.13-11.68-5.88a29.92,29.92,0,0,0,5.15-2A28.52,28.52,0,0,0,215,65.26c1.37-1.15,3.08-2.93,1.91-4.82-.88-1.44-2.81-1.81-4.36-2-2.52-.29-5-.59-7.55-1-5.06-.74-10.1-1.63-15.14-2.53-10-1.79-20-3.61-30.15-4.32-9.61-.66-19.38-.31-28.76,2.06A57.81,57.81,0,0,0,108,64c-.53.44-1,.9-1.55,1.36a40.83,40.83,0,0,0,1.31-9c0-1.08,0-2.16,0-3.24a19.19,19.19,0,0,0-.33-3.2,4,4,0,0,0-3.68-3.37,8.72,8.72,0,0,0-5.09,1.29,16.26,16.26,0,0,0-4.29,3.54,30.94,30.94,0,0,0-5.8,10.47,35.35,35.35,0,0,0-1.87,11.89A34.07,34.07,0,0,0,64,68.64,33.16,33.16,0,0,0,57.92,70a28.66,28.66,0,0,0-2.84,1.09,5.31,5.31,0,0,0-2.24,1.73c-1.37,2,.3,4.33,1.6,5.89a26.48,26.48,0,0,0,15.77,9.06,41.44,41.44,0,0,0-7.85,8.91c-2.15,3.18-4,6.53-6,9.81a100.87,100.87,0,0,1-6,8.91,93.91,93.91,0,0,1-14.3,15.12,91.76,91.76,0,0,1-8.31,6.27c-1.24.83-2.68,1.85-2.8,3.48s1.19,2.74,2.49,3.36A17.77,17.77,0,0,0,36.8,145a19.74,19.74,0,0,0,8.94-3.16c.28-.19.55-.39.82-.6a41.92,41.92,0,0,1-7.38,15.81,40.49,40.49,0,0,1-3.92,4.46c-.72.7-1.45,1.38-2.22,2s-1.59,1.19-2.27,1.89a2.75,2.75,0,0,0-.9,2.63,2.91,2.91,0,0,0,1.75,1.78,10.44,10.44,0,0,0,2.87.67,31.27,31.27,0,0,0,3.36.27,30.46,30.46,0,0,0,14.3-3.26A108.93,108.93,0,0,0,54.79,179a8.56,8.56,0,0,0,2.84,4.82,4.43,4.43,0,0,0,5.65-.81c1.73-1.7,2.35-4.3,3.13-6.52l2.7-7.72,5.42-15.44.69-2a.66.66,0,0,0,0-.27q1.75-1.31,3.48-2.64,3.94-3.07,7.74-6.34l1.37-1.2a82,82,0,0,0,.24,10.86c.13,1.39.29,2.78.49,4.16a18.8,18.8,0,0,0,.82,3.77c.8,2.23,2.53,4.29,5,4.52,2.35.23,4.24-1.55,5.59-3.25,1.77-2.22,3.41-4.54,5.11-6.81L115.7,140l1.32-1.78a.41.41,0,0,0,.07-.11,43.76,43.76,0,0,0,7.36,9.92,38,38,0,0,0,19.33,10.7c.95.18,1.9.32,2.86.43a7.16,7.16,0,0,0,2.69,0,1.94,1.94,0,0,0,1.41-2.12,12.13,12.13,0,0,0-1.07-3.12l-3.14-7.89a54.49,54.49,0,0,0,7.22,7.66,54,54,0,0,0,13,8.4,55,55,0,0,0,16,4.52c1.37.17,2.75.29,4.13.35.69,0,1.38,0,2.07.06a4.71,4.71,0,0,0,2.08-.21c1.13-.57.87-2,.43-2.9-.6-1.24-1.35-2.43-2-3.66a124.56,124.56,0,0,1-6.29-13.94,73.18,73.18,0,0,0,9.71,10.12,59.11,59.11,0,0,0,7.29,5.42,31.12,31.12,0,0,0,4.17,2.17,12,12,0,0,0,4.11,1.16,3.15,3.15,0,0,0,3.17-1.6c.65-1.38.09-3-.22-4.39q-1.06-4.65-2.12-9.3a47.16,47.16,0,0,0,13.83,9.64,48.15,48.15,0,0,0,5,1.95q3,7.37,6.75,14.41,1.89,3.57,4,7.05a39,39,0,0,0,4.12,5.91,19,19,0,0,0,2.63,2.44c.87.66,2.14,1.47,3.21.72s.93-2.23,1-3.31c.15-1.41.29-2.82.41-4.23q.71-8.19.71-16.42a20.54,20.54,0,0,0,8.26,5.5c1.54.54,3.39,1.11,5,.59a3.41,3.41,0,0,0,2.19-3.93c-.28-1.87-1.7-3.31-2.79-4.77a50.5,50.5,0,0,1-3.08-4.69A49.91,49.91,0,0,1,256,150.53c-.27-.89-.51-1.79-.73-2.69a32.53,32.53,0,0,0,7.88,3.56,32.1,32.1,0,0,0,4.74,1,17.67,17.67,0,0,0,4.41.29c1.35-.15,2.72-.94,2.66-2.48S273.58,147.54,272.61,146.48Z"/><path class="cls-4" d="M272.61,146.48q-3.19-3.47-6-7.22a163.11,163.11,0,0,1-10.39-15.77c-3.23-5.47-6.28-11.06-9.41-16.59q-2.32-4.14-4.76-8.21c-.76-1.26-1.53-2.54-2.38-3.75a17.29,17.29,0,0,0,8.77-6A11.36,11.36,0,0,0,250,86.34a2.44,2.44,0,0,0-.66-2.79,4.63,4.63,0,0,0-3.08-.9c-1.23,0-2.45,0-3.68,0-4.83.06-9.71.11-14.43-1.08a56.65,56.65,0,0,1-12-4.88c-3.87-2-7.68-4.13-11.68-5.88a29.92,29.92,0,0,0,5.15-2A28.52,28.52,0,0,0,215,65.26c1.37-1.15,3.08-2.93,1.91-4.82-.88-1.44-2.81-1.81-4.36-2-2.52-.29-5-.59-7.55-1-5.06-.74-10.1-1.63-15.14-2.53-10-1.79-20-3.61-30.15-4.32-9.61-.66-19.38-.31-28.76,2.06A57.81,57.81,0,0,0,108,64c-.53.44-1,.9-1.55,1.36a40.83,40.83,0,0,0,1.31-9c0-1.08,0-2.16,0-3.24a19.19,19.19,0,0,0-.33-3.2,4,4,0,0,0-3.68-3.37,8.72,8.72,0,0,0-5.09,1.29,16.26,16.26,0,0,0-4.29,3.54,30.94,30.94,0,0,0-5.8,10.47,35.35,35.35,0,0,0-1.87,11.89A34.07,34.07,0,0,0,64,68.64,33.16,33.16,0,0,0,57.92,70a28.66,28.66,0,0,0-2.84,1.09,5.31,5.31,0,0,0-2.24,1.73c-1.37,2,.3,4.33,1.6,5.89a26.48,26.48,0,0,0,15.77,9.06,41.44,41.44,0,0,0-7.85,8.91c-2.15,3.18-4,6.53-6,9.81a100.87,100.87,0,0,1-6,8.91,93.91,93.91,0,0,1-14.3,15.12,91.76,91.76,0,0,1-8.31,6.27c-1.24.83-2.68,1.85-2.8,3.48s1.19,2.74,2.49,3.36A17.77,17.77,0,0,0,36.8,145a19.74,19.74,0,0,0,8.94-3.16c.28-.19.55-.39.82-.6a41.92,41.92,0,0,1-7.38,15.81,40.49,40.49,0,0,1-3.92,4.46c-.72.7-1.45,1.38-2.22,2s-1.59,1.19-2.27,1.89a2.75,2.75,0,0,0-.9,2.63,2.91,2.91,0,0,0,1.75,1.78,10.44,10.44,0,0,0,2.87.67,31.27,31.27,0,0,0,3.36.27,30.46,30.46,0,0,0,14.3-3.26A108.93,108.93,0,0,0,54.79,179a8.56,8.56,0,0,0,2.84,4.82,4.43,4.43,0,0,0,5.65-.81c1.73-1.7,2.35-4.3,3.13-6.52l2.7-7.72,5.42-15.44.69-2a.66.66,0,0,0,0-.27q1.75-1.31,3.48-2.64,3.94-3.07,7.74-6.34l1.37-1.2a82,82,0,0,0,.24,10.86c.13,1.39.29,2.78.49,4.16a18.8,18.8,0,0,0,.82,3.77c.8,2.23,2.53,4.29,5,4.52,2.35.23,4.24-1.55,5.59-3.25,1.77-2.22,3.41-4.54,5.11-6.81L115.7,140l1.32-1.78a.41.41,0,0,0,.07-.11,43.76,43.76,0,0,0,7.36,9.92,38,38,0,0,0,19.33,10.7c.95.18,1.9.32,2.86.43a7.16,7.16,0,0,0,2.69,0,1.94,1.94,0,0,0,1.41-2.12,12.13,12.13,0,0,0-1.07-3.12l-3.14-7.89a54.49,54.49,0,0,0,7.22,7.66,54,54,0,0,0,13,8.4,55,55,0,0,0,16,4.52c1.37.17,2.75.29,4.13.35.69,0,1.38,0,2.07.06a4.71,4.71,0,0,0,2.08-.21c1.13-.57.87-2,.43-2.9-.6-1.24-1.35-2.43-2-3.66a124.56,124.56,0,0,1-6.29-13.94,73.18,73.18,0,0,0,9.71,10.12,59.11,59.11,0,0,0,7.29,5.42,31.12,31.12,0,0,0,4.17,2.17,12,12,0,0,0,4.11,1.16,3.15,3.15,0,0,0,3.17-1.6c.65-1.38.09-3-.22-4.39q-1.06-4.65-2.12-9.3a47.16,47.16,0,0,0,13.83,9.64,48.15,48.15,0,0,0,5,1.95q3,7.37,6.75,14.41,1.89,3.57,4,7.05a39,39,0,0,0,4.12,5.91,19,19,0,0,0,2.63,2.44c.87.66,2.14,1.47,3.21.72s.93-2.23,1-3.31c.15-1.41.29-2.82.41-4.23q.71-8.19.71-16.42a20.54,20.54,0,0,0,8.26,5.5c1.54.54,3.39,1.11,5,.59a3.41,3.41,0,0,0,2.19-3.93c-.28-1.87-1.7-3.31-2.79-4.77a50.5,50.5,0,0,1-3.08-4.69A49.91,49.91,0,0,1,256,150.53c-.27-.89-.51-1.79-.73-2.69a32.53,32.53,0,0,0,7.88,3.56,32.1,32.1,0,0,0,4.74,1,17.67,17.67,0,0,0,4.41.29c1.35-.15,2.72-.94,2.66-2.48S273.58,147.54,272.61,146.48Zm.93,4.43a1.86,1.86,0,0,1-1.31.57,11,11,0,0,1-2,0,30.44,30.44,0,0,1-4.56-.7,31.7,31.7,0,0,1-8.56-3.3c-.66-.37-1.31-.77-2-1.19a.57.57,0,0,0-.25-.1,48.17,48.17,0,0,1-1-8c0-.81-1.31-.82-1.28,0A50.78,50.78,0,0,0,258,158.86a49.6,49.6,0,0,0,2.69,4.7c1,1.52,2.1,2.93,3.18,4.39.85,1.15,1.87,2.93.89,4.31s-2.76.83-4,.49a19.16,19.16,0,0,1-9.41-6.07.53.53,0,0,0-.47-.2q0-8-.74-15.92c-.06-.71-.12-1.41-.19-2.12a.65.65,0,0,0-.64-.63.63.63,0,0,0-.63.63q.78,8.15.91,16.34t-.43,16.27q-.27,4.08-.72,8.15a5.05,5.05,0,0,1-.27,1.59c-.21.41-.66.27-1,.1a10.53,10.53,0,0,1-2.61-2.1,29.79,29.79,0,0,1-4.11-5.49c-1.31-2.15-2.56-4.35-3.76-6.57q-3.72-6.85-6.77-14c-.1-.22-.2-.45-.29-.68.81.23,1.63.45,2.45.64s1.59.34,2.4.48a8.56,8.56,0,0,0,2.57.19,2.84,2.84,0,0,0,2.67-3.23,16.82,16.82,0,0,0-.95-3l-1.06-3.05-2.17-6.27c-.26-.77-1.5-.44-1.23.34q1.82,5.22,3.62,10.44c.24.7.75,1.65.52,2.4a1.71,1.71,0,0,1-1.29,1,6,6,0,0,1-2.34-.1c-.77-.14-1.52-.29-2.28-.46a46,46,0,0,1-23.82-13.94h0l-.32-1.44a.64.64,0,0,0-.82-.39.66.66,0,0,0-.39.81q1.16,5.07,2.32,10.15c.36,1.59.82,3.18,1.07,4.79a2.59,2.59,0,0,1-.2,1.82,1.71,1.71,0,0,1-1.21.69,7.39,7.39,0,0,1-3.63-.75,29.44,29.44,0,0,1-4-2,52.5,52.5,0,0,1-7.11-5.12A72,72,0,0,1,183,144a73.72,73.72,0,0,1-8.39-14.26,71.58,71.58,0,0,1-5-15.84c-.13-.66-.24-1.33-.35-2a.66.66,0,0,0-.68-.59.64.64,0,0,0-.59.68,73,73,0,0,0,4.72,16.66,75.61,75.61,0,0,0,7.81,14.15,129.14,129.14,0,0,0,6.4,15.33c.62,1.26,1.27,2.52,1.94,3.76.33.61.66,1.22,1,1.82a4.9,4.9,0,0,1,.67,1.45c.08.47-.08.58-.55.59-.66,0-1.33,0-2,0-1.33,0-2.67-.12-4-.25a53.3,53.3,0,0,1-15.41-3.94,52.61,52.61,0,0,1-12.84-7.78,53.23,53.23,0,0,1-9.87-10.68c-.35-.5-.69-1-1-1.51a.68.68,0,0,0-.25-.23l-.41-1-1.32-3.3a.66.66,0,0,0-.78-.45.64.64,0,0,0-.45.79q2.64,6.6,5.27,13.22l1.32,3.3.62,1.57a8.61,8.61,0,0,1,.54,1.52.81.81,0,0,1-.25.9,1.94,1.94,0,0,1-1.09.15,22.32,22.32,0,0,1-2.58-.26,36.13,36.13,0,0,1-19-9.52,45.49,45.49,0,0,1-12-19.41,68.84,68.84,0,0,1-3-24.5,141.42,141.42,0,0,1,4.4-27c.26-1.09.54-2.18.81-3.27a.63.63,0,0,0-1.22-.33c-2.34,9.17-4.39,18.46-5.1,27.92a73.1,73.1,0,0,0,2.25,25.59,52.91,52.91,0,0,0,4,10.09.69.69,0,0,0-.73.29L105.77,151.2,100.7,158c-.74,1-1.44,2-2.26,2.91A6.47,6.47,0,0,1,96,162.77c-2.13.78-4.09-.72-5-2.58a12.27,12.27,0,0,1-1-3.51c-.21-1.3-.37-2.61-.51-3.92a81.12,81.12,0,0,1-.06-15.89,79.43,79.43,0,0,1,3-15.57c.19-.64.4-1.28.6-1.92s-1-1.11-1.22-.34a81.77,81.77,0,0,0-3.54,16.2c-.16,1.4-.28,2.8-.37,4.2a.64.64,0,0,0-.47.16Q80.19,146,72.35,151.67A22.86,22.86,0,0,1,68.8,154a5.51,5.51,0,0,1-3.41.67c-2.66-.6-2.29-3.81-1.77-5.8.73-2.76,1.67-5.47,2.65-8.15s2.1-5.4,3.3-8a120.08,120.08,0,0,1,8.31-15.18A115.26,115.26,0,0,1,88.32,103.7c.48-.54,1-1.08,1.45-1.61s-.35-1.51-.9-.9a118.26,118.26,0,0,0-26.3,46.67c-.67,2.3-1.25,5.46.89,7.21s5.32.52,7.44-.83c.89-.57,1.75-1.19,2.61-1.83L68.78,165.9l-2.63,7.49L64.89,177a29.36,29.36,0,0,1-1.25,3.27c-.82,1.68-2.55,3.59-4.63,2.87-1.58-.55-2.35-2.43-2.82-3.88-.74-2.28-1.27-4.64-1.79-7q-.84-3.75-1.43-7.54a118.59,118.59,0,0,1-1.38-16.94.64.64,0,0,0-1.27,0,118.79,118.79,0,0,0,1.2,15.76c.13.91.27,1.81.42,2.71l-.18.06a29,29,0,0,1-12.38,3.2A24.53,24.53,0,0,1,33,169a2.76,2.76,0,0,1-1.86-1.06c-.4-.75.31-1.46.84-1.92.72-.62,1.49-1.18,2.21-1.8s1.43-1.28,2.1-1.95a42.06,42.06,0,0,0,3.88-4.45,43,43,0,0,0,5.69-10.13A41.74,41.74,0,0,0,48.76,135c.05-.82-1.22-.81-1.28,0A37.5,37.5,0,0,1,47,139.4a.57.57,0,0,0-.25.14,18.24,18.24,0,0,1-17.06,3.53c-1.12-.35-2.73-.86-3.24-2-.6-1.36,1-2.44,1.94-3.08a96.45,96.45,0,0,0,8.06-6,94.65,94.65,0,0,0,14-14.44,94.69,94.69,0,0,0,5.85-8.35c2-3.13,3.73-6.36,5.68-9.48,3.49-5.56,7.75-11,13.77-14a20.89,20.89,0,0,1,2.13-.9c.77-.27.44-1.5-.34-1.23a23.69,23.69,0,0,0-5.9,3.14h-.07a25.43,25.43,0,0,1-15-7.58,21.31,21.31,0,0,1-1.85-2.18,3.87,3.87,0,0,1-1-2.76,2.75,2.75,0,0,1,1.66-1.78,17.67,17.67,0,0,1,2.6-1A32,32,0,0,1,63.54,70,32.87,32.87,0,0,1,75,70.35a32.12,32.12,0,0,1,11.66,5c0,.17,0,.35,0,.53.06.81,1.33.82,1.27,0a33.68,33.68,0,0,1,6.06-22.12A18.06,18.06,0,0,1,97.6,50a10.54,10.54,0,0,1,4.58-2.16c1.46-.23,3.13.11,3.74,1.62a9.28,9.28,0,0,1,.45,2.77c.08,1,.11,2.06.1,3.09a39.75,39.75,0,0,1-2.6,13.81.64.64,0,0,0,.44.78.66.66,0,0,0,.79-.44c.28-.76.54-1.52.78-2.3a.59.59,0,0,0,.6-.15,53.74,53.74,0,0,1,21.36-12.14,82.28,82.28,0,0,1,26.9-3.23c9.8.29,19.5,1.81,29.14,3.51,4.79.84,9.58,1.73,14.38,2.53s9.6,1.44,14.43,2c1.15.14,3.54.59,3.32,2.22-.13.93-1,1.64-1.7,2.21a25.86,25.86,0,0,1-2.52,1.89,27.41,27.41,0,0,1-11.56,4.35,27.12,27.12,0,0,1-3.12.23.64.64,0,0,0,0,1.27,28.39,28.39,0,0,0,5.36-.6.52.52,0,0,0,.13.06c7.74,3.14,14.67,8,22.64,10.67A43.26,43.26,0,0,0,238.57,84c2.37,0,4.74,0,7.11,0,.93,0,2.11-.09,2.85.61s.21,1.6-.24,2.34a15.93,15.93,0,0,1-9.47,7,17.53,17.53,0,0,0-2.21-2.35,13.56,13.56,0,0,0-1.8-1.31c-.7-.43-1.34.67-.64,1.1a18.57,18.57,0,0,1,5.72,6.35c1.6,2.56,3.11,5.19,4.61,7.82,3.05,5.32,6,10.7,9.05,16s6.22,10.5,9.76,15.47c1.76,2.47,3.6,4.89,5.55,7.21q1.47,1.76,3,3.44a12.31,12.31,0,0,1,1.45,1.69A1.47,1.47,0,0,1,273.54,150.91Z"/><g id="_4" data-name="4"><ellipse class="cls-5" cx="149.01" cy="189.18" rx="61.79" ry="9.86"/><path d="M98.27,172.27a12.27,12.27,0,1,0,20.31,0Z"/><path class="cls-6" d="M102.42,172.27a2.45,2.45,0,0,0-.2,1,2.55,2.55,0,1,0,5.09,0,2.63,2.63,0,0,0-.19-1Z"/><path d="M130.76,170.06H95.68c-.74,0-.74,1.28,0,1.28h35.08C131.49,171.34,131.49,170.06,130.76,170.06Z"/><path d="M130.76,172.54H95.68a1.72,1.72,0,0,1-1.37-.66,2,2,0,0,1-.39-1.18,1.78,1.78,0,0,1,1.76-1.84h35.08a1.84,1.84,0,0,1,0,3.68Z"/><path d="M125.28,153.54a10.17,10.17,0,0,1-10,5.21.64.64,0,0,0-.63.64.66.66,0,0,0,.63.64,11.41,11.41,0,0,0,11.06-5.85C126.77,153.46,125.67,152.81,125.28,153.54Z"/><path d="M178.21,172.27a12.27,12.27,0,1,0,20.31,0Z"/><path class="cls-6" d="M182.35,172.27a2.63,2.63,0,0,0-.19,1,2.55,2.55,0,1,0,5.09,0,2.63,2.63,0,0,0-.19-1Z"/><path d="M211,170.06H175.93c-.73,0-.73,1.28,0,1.28H211C211.75,171.34,211.75,170.06,211,170.06Z"/><path d="M211,172.54H175.94a1.7,1.7,0,0,1-1.37-.66,2,2,0,0,1-.39-1.18,1.78,1.78,0,0,1,1.76-1.84H211a1.68,1.68,0,0,1,1.36.67,1.85,1.85,0,0,1,.39,1.17A1.78,1.78,0,0,1,211,172.54Z"/><path d="M186.75,157.4a11.51,11.51,0,0,1-10.14-2.82c-.6-.56-1.5.34-.9.9a12.82,12.82,0,0,0,11.38,3.15C187.89,158.45,187.55,157.22,186.75,157.4Z"/><path d="M154.48,205.2a23.24,23.24,0,0,0-.44,2.47,41.31,41.31,0,0,0-12.62,7.26c-.63.53.28,1.42.9.9a39.47,39.47,0,0,1,11.58-6.75,24.06,24.06,0,0,0,0,3.89.66.66,0,0,0,.64.64.64.64,0,0,0,.64-.64,22.92,22.92,0,0,1,.48-7.43C155.89,204.74,154.66,204.4,154.48,205.2Z"/><path class="cls-7" d="M136,192.93l-7-9.25a.66.66,0,0,0-.87-.23.64.64,0,0,0-.23.87l7,9.25a.64.64,0,1,0,1.1-.64Z"/><path class="cls-7" d="M144.23,192.93l-7-9.25a.66.66,0,0,0-.87-.23.64.64,0,0,0-.23.87l7,9.25a.64.64,0,1,0,1.1-.64Z"/><path class="cls-7" d="M153.14,192.93q-3.49-4.62-7-9.25a.66.66,0,0,0-.87-.23.64.64,0,0,0-.23.87l7,9.25a.65.65,0,0,0,.87.23A.64.64,0,0,0,153.14,192.93Z"/><path class="cls-7" d="M161.58,192.93l-7-9.25a.66.66,0,0,0-.87-.23.64.64,0,0,0-.23.87q3.5,4.63,7,9.25a.65.65,0,0,0,.87.23A.64.64,0,0,0,161.58,192.93Z"/><path class="cls-7" d="M170.18,192.93l-7-9.25a.66.66,0,0,0-.87-.23.64.64,0,0,0-.23.87q3.49,4.63,7,9.25a.65.65,0,0,0,.87.23A.64.64,0,0,0,170.18,192.93Z"/></g></svg>