<svg id="Layer_1" data-name="Layer 1" xmlns="http://www.w3.org/2000/svg" viewBox="0 0 300 300"><defs><style>.cls-1{fill:#fe9179;}.cls-2{fill:#ad1f18;}.cls-3{fill:#fedccc;}.cls-4{fill:#5c371d;}.cls-5{fill:#3cf;}.cls-6{fill:#06c;}.cls-7{fill:#39f;}.cls-8{fill:#feafab;}.cls-9{fill:#fff;}</style></defs><path class="cls-1" d="M270.75,166.61a160.77,160.77,0,0,0-10.63-34.85,167.58,167.58,0,0,0-18.56-32.33c-.93-1.26-1.87-2.52-2.84-3.76a.78.78,0,0,0-.44-.28c-7.91-8.78-18.81-14-30-17.34a169.61,169.61,0,0,0-17.67-4.13c-7.07-1.32-14.19-2.39-21.34-3.11-14.3-1.43-28.8-1.38-43,1.19A104.72,104.72,0,0,0,93,84a82,82,0,0,0-25.77,22.66q-1.18,1.64-2.28,3.33a.6.6,0,0,0-.25.27l-10.11,21-20.15,42q-2.52,5.22-5,10.45L26.88,189a16.82,16.82,0,0,0-1.82,4.44c-.23,1.4.16,2.9,1.65,3.4s3.18-.38,4.51-1A28,28,0,0,0,39,190.12l.25-.26q-2.47,8.94-5.79,17.62c-.71,1.84-1.44,3.68-2.21,5.51-.37.9-.76,1.79-1.15,2.68a7.15,7.15,0,0,0-.78,2.46,2.05,2.05,0,0,0,1,1.91,3.26,3.26,0,0,0,2.34.1,28.46,28.46,0,0,0,4.83-1.76,32.87,32.87,0,0,0,8.2-5.34,103.57,103.57,0,0,1-8,23.56c-.54,1.14-1.11,2.27-1.7,3.38s-1.23,2.17-1.75,3.3c-.9,2-1.15,4.59.88,6,1.76,1.18,4.18.55,6.07.09a48.06,48.06,0,0,0,6.62-2.11,49.83,49.83,0,0,0,12.14-7l-1.2,5.54q-.55,2.53-1.1,5c-.31,1.38-.54,3,.8,3.86a4.64,4.64,0,0,0,3.45.38A35.39,35.39,0,0,0,66.13,254a42.63,42.63,0,0,0,8-3.52,42,42,0,0,0,6.68-4.72c0,.65,0,1.3,0,1.95,0,1.71-.12,3.81,1.25,5.08s3.47,1,5.13.37c1.87-.68,3.7-1.51,5.51-2.35S96.32,249,98.1,248a94,94,0,0,0,10.24-6.48,95.77,95.77,0,0,0,9.08-7.49,46.67,46.67,0,0,1-1.25,5.6c-.56,1.92-1.32,3.76-2,5.64a7.12,7.12,0,0,0-.17,5.27,4.1,4.1,0,0,0,3.86,2.44,12.91,12.91,0,0,0,5.09-1.5,55.05,55.05,0,0,0,9.39-5.34,56.62,56.62,0,0,0,8.26-7.12c0,1.88,0,3.77,0,5.66,0,1.48,0,3,.05,4.46a7.74,7.74,0,0,0,.94,3.65c1.54,2.54,4.78,2.62,7.29,1.68a33.64,33.64,0,0,0,4.06-1.95c1.27-.69,2.52-1.43,3.73-2.22a58.48,58.48,0,0,0,7.21-5.54c1.4,3.93,3.06,7.94,6.08,10.84a6.5,6.5,0,0,0,3.05,1.79,4,4,0,0,0,3.22-.73,8.62,8.62,0,0,0,2.13-2.56,28.31,28.31,0,0,0,1.73-3.49A28.63,28.63,0,0,0,182,243.5a33.64,33.64,0,0,0,9.57,10.71c2.26,1.64,5.17,3.64,8.1,2.79a4.11,4.11,0,0,0,2.81-2.74,8.45,8.45,0,0,0-.07-4.12c-.37-1.77-.8-3.5-1-5.3a38.66,38.66,0,0,1-.26-4.81c3.85,2,6.89,5.66,11.46,6a8.26,8.26,0,0,0,6.18-2.5c1.91-1.7,3.72-3.52,5.57-5.28l4.35-4.15q-2,4.63-3.71,9.38s0,0,0,0l-2.32,6.1-1.21,3.19a19.38,19.38,0,0,0-.89,2.63c-.35,1.59-.2,3.48,1.38,4.36s3.43.16,4.86-.61c1.69-.92,3.31-2,4.91-3.06s3.22-2.23,4.78-3.41a102.15,102.15,0,0,0,8.84-7.53,99.11,99.11,0,0,0,7.89-8.5c.09,2.1.27,4.19.56,6.28a24.45,24.45,0,0,0,.86,4.56,4.18,4.18,0,0,0,2.51,2.74c3.3,1.19,6-1.42,7.09-3.72a63.31,63.31,0,0,0,2.85-8.5,151.84,151.84,0,0,0,6-35.5A156.09,156.09,0,0,0,270.75,166.61Z"/><path class="cls-2" d="M270.75,166.61a160.77,160.77,0,0,0-10.63-34.85,167.58,167.58,0,0,0-18.56-32.33c-.93-1.26-1.87-2.52-2.84-3.76a.78.78,0,0,0-.44-.28c-7.91-8.78-18.81-14-30-17.34a169.61,169.61,0,0,0-17.67-4.13c-7.07-1.32-14.19-2.39-21.34-3.11-14.3-1.43-28.8-1.38-43,1.19A104.72,104.72,0,0,0,93,84a82,82,0,0,0-25.77,22.66q-1.18,1.64-2.28,3.33a.6.6,0,0,0-.25.27l-10.11,21-20.15,42q-2.52,5.22-5,10.45L26.88,189a16.82,16.82,0,0,0-1.82,4.44c-.23,1.4.16,2.9,1.65,3.4s3.18-.38,4.51-1A28,28,0,0,0,39,190.12l.25-.26q-2.47,8.94-5.79,17.62c-.71,1.84-1.44,3.68-2.21,5.51-.37.9-.76,1.79-1.15,2.68a7.15,7.15,0,0,0-.78,2.46,2.05,2.05,0,0,0,1,1.91,3.26,3.26,0,0,0,2.34.1,28.46,28.46,0,0,0,4.83-1.76,32.87,32.87,0,0,0,8.2-5.34,103.57,103.57,0,0,1-8,23.56c-.54,1.14-1.11,2.27-1.7,3.38s-1.23,2.17-1.75,3.3c-.9,2-1.15,4.59.88,6,1.76,1.18,4.18.55,6.07.09a48.06,48.06,0,0,0,6.62-2.11,49.83,49.83,0,0,0,12.14-7l-1.2,5.54q-.55,2.53-1.1,5c-.31,1.38-.54,3,.8,3.86a4.64,4.64,0,0,0,3.45.38A35.39,35.39,0,0,0,66.13,254a42.63,42.63,0,0,0,8-3.52,42,42,0,0,0,6.68-4.72c0,.65,0,1.3,0,1.95,0,1.71-.12,3.81,1.25,5.08s3.47,1,5.13.37c1.87-.68,3.7-1.51,5.51-2.35S96.32,249,98.1,248a94,94,0,0,0,10.24-6.48,95.77,95.77,0,0,0,9.08-7.49,46.67,46.67,0,0,1-1.25,5.6c-.56,1.92-1.32,3.76-2,5.64a7.12,7.12,0,0,0-.17,5.27,4.1,4.1,0,0,0,3.86,2.44,12.91,12.91,0,0,0,5.09-1.5,55.05,55.05,0,0,0,9.39-5.34,56.62,56.62,0,0,0,8.26-7.12c0,1.88,0,3.77,0,5.66,0,1.48,0,3,.05,4.46a7.74,7.74,0,0,0,.94,3.65c1.54,2.54,4.78,2.62,7.29,1.68a33.64,33.64,0,0,0,4.06-1.95c1.27-.69,2.52-1.43,3.73-2.22a58.48,58.48,0,0,0,7.21-5.54c1.4,3.93,3.06,7.94,6.08,10.84a6.5,6.5,0,0,0,3.05,1.79,4,4,0,0,0,3.22-.73,8.62,8.62,0,0,0,2.13-2.56,28.31,28.31,0,0,0,1.73-3.49A28.63,28.63,0,0,0,182,243.5a33.64,33.64,0,0,0,9.57,10.71c2.26,1.64,5.17,3.64,8.1,2.79a4.11,4.11,0,0,0,2.81-2.74,8.45,8.45,0,0,0-.07-4.12c-.37-1.77-.8-3.5-1-5.3a38.66,38.66,0,0,1-.26-4.81c3.85,2,6.89,5.66,11.46,6a8.26,8.26,0,0,0,6.18-2.5c1.91-1.7,3.72-3.52,5.57-5.28l4.35-4.15q-2,4.63-3.71,9.38s0,0,0,0l-2.32,6.1-1.21,3.19a19.38,19.38,0,0,0-.89,2.63c-.35,1.59-.2,3.48,1.38,4.36s3.43.16,4.86-.61c1.69-.92,3.31-2,4.91-3.06s3.22-2.23,4.78-3.41a102.15,102.15,0,0,0,8.84-7.53,99.11,99.11,0,0,0,7.89-8.5c.09,2.1.27,4.19.56,6.28a24.45,24.45,0,0,0,.86,4.56,4.18,4.18,0,0,0,2.51,2.74c3.3,1.19,6-1.42,7.09-3.72a63.31,63.31,0,0,0,2.85-8.5,151.84,151.84,0,0,0,6-35.5A156.09,156.09,0,0,0,270.75,166.61Zm-3,62.82c-.68,2.86-1.43,5.7-2.28,8.53a63.08,63.08,0,0,1-2.77,8.26,4.74,4.74,0,0,1-3.33,2.93,2.69,2.69,0,0,1-3.22-2.06,25.06,25.06,0,0,1-.85-4.7c-.22-1.71-.37-3.42-.46-5.14s-.1-3.43-.06-5.14c0-.86-1.57-.86-1.6,0s0,1.7,0,2.56a99.27,99.27,0,0,1-15.63,15.58,96.55,96.55,0,0,1-9,6.37c-1.39.87-2.91,2-4.58,2.23a1.94,1.94,0,0,1-1.76-.55,2.41,2.41,0,0,1-.42-1.88,10,10,0,0,1,.72-2.53l1.3-3.43,2.61-6.86a.11.11,0,0,1,0,0q2.07-5.75,4.59-11.29a.78.78,0,0,0,.07-.42.67.67,0,0,0-1.06-.78l-11.14,10.6c-1.53,1.46-3.19,3-5.42,3.07a10.47,10.47,0,0,1-6-2.07c-2.12-1.39-4-3.09-6.36-4.13l-.2-.07a.69.69,0,0,0-1.06.55,38.11,38.11,0,0,0,.88,9.64c.45,2,1.63,5.46-.74,6.79s-5.39-.74-7.33-2.11a32,32,0,0,1-5.92-5.4,32.31,32.31,0,0,1-4.83-7.6.67.67,0,1,0-1.15.67c.1.22.2.44.31.66a.67.67,0,0,0-.22.45,27,27,0,0,1-1.53,6.93,25.43,25.43,0,0,1-1.43,3.25,12.75,12.75,0,0,1-1.72,2.68c-3.49,3.87-7.48-2.71-8.86-5.46a55.92,55.92,0,0,1-2.8-7c-.28-.8-1.57-.46-1.29.36l.21.59A55.12,55.12,0,0,1,150,252.58c-2.06,1-5.22,2.09-7-.07a5.35,5.35,0,0,1-1-3.08c-.11-1.37-.06-2.76-.07-4.14q0-5.23,0-10.49a.67.67,0,0,0-1.33,0c0,.77,0,1.55,0,2.32l0,0a54.85,54.85,0,0,1-16.43,12.36,26.68,26.68,0,0,1-4.69,1.95c-1.37.36-3.07.42-3.95-.92s-.63-3.1-.14-4.57c.61-1.82,1.38-3.57,1.93-5.41a47.47,47.47,0,0,0,2-12.74.67.67,0,0,0-1.33,0c0,1.38-.13,2.77-.29,4.14a93.52,93.52,0,0,1-28.6,19c-.84.36-1.68.72-2.55,1a5.65,5.65,0,0,1-2.44.39c-1.73-.21-2-2-2-3.46s0-2.9.08-4.35a.58.58,0,0,0,0-.73c.18-3.24.54-6.47,1-9.65a.67.67,0,1,0-1.29-.35c-.51,3.34-.86,6.72-1,10.1a41,41,0,0,1-13.62,8.28,36.7,36.7,0,0,1-3.86,1.2,8.77,8.77,0,0,1-3.43.5,1.47,1.47,0,0,1-1.07-.57,2.38,2.38,0,0,1,0-1.76L60,246.73q1.19-5.41,2.36-10.84c.18-.83-1.1-1.19-1.29-.35l-.58,2.66h0a48.06,48.06,0,0,1-17.64,9.34c-1.08.31-2.18.59-3.28.81a6.37,6.37,0,0,1-2.78.11A2.19,2.19,0,0,1,35,246.83a4.46,4.46,0,0,1,.49-3c.48-1,1.08-2,1.61-3s1.12-2.15,1.65-3.24a105.69,105.69,0,0,0,5.37-13.37,104.67,104.67,0,0,0,3.76-15.61.67.67,0,1,0-1.29-.35c-.13.86-.29,1.72-.45,2.59a32.1,32.1,0,0,1-7.93,5.75,31.62,31.62,0,0,1-4.46,1.87c-.78.25-3.31,1.28-3.1-.42a8.76,8.76,0,0,1,.85-2.25c.37-.85.73-1.7,1.09-2.56q1.08-2.59,2.09-5.22,2-5.22,3.7-10.54,1.92-6,3.43-12.11a.67.67,0,0,0-1.29-.36c-.18.75-.38,1.49-.57,2.24a.51.51,0,0,0-.3.17,27.13,27.13,0,0,1-7,6.08,17,17,0,0,1-4.21,2,1.79,1.79,0,0,1-1.8-.24,1.73,1.73,0,0,1-.31-1.41,5.77,5.77,0,0,1,.53-1.76c.37-.82.77-1.63,1.16-2.44l2.44-5.07q2.46-5.1,4.91-10.21,4.88-10.14,9.74-20.29L54.9,133.7l9.75-20.28L65.82,111a.59.59,0,0,0,.17-.18A78.3,78.3,0,0,1,90.25,87.16a100.64,100.64,0,0,1,31.67-12.9c13.73-3.09,27.93-3.6,41.93-2.58,7.11.51,14.19,1.42,21.22,2.6,6.17,1,12.32,2.22,18.38,3.8,11.15,2.9,22.34,7.27,30.9,15.22,1.05,1,2,2,3,3a166.72,166.72,0,0,1,19,30.91,161.3,161.3,0,0,1,11.5,33.2,155.84,155.84,0,0,1,3.88,34.5A151,151,0,0,1,267.78,229.43Z"/><path class="cls-3" d="M73.23,223.51A82.85,82.85,0,0,1,66,202.73c-.42-2-.77-4.08-1-6.14a.71.71,0,0,0-.45-.62.77.77,0,0,0-.31-.48c-3.92-3-9.54-2.7-13.65-.3-4.35,2.55-7.21,7.12-8.69,11.83-1.62,5.18-1.48,11,1.35,15.73A14.82,14.82,0,0,0,48.53,228a17.75,17.75,0,0,0,7.07,2.19c5.37.53,10.69-1.31,15.26-4,.58-.34,1.16-.7,1.73-1.08a.64.64,0,0,0,.29-.65A.67.67,0,0,0,73.23,223.51Z"/><path class="cls-4" d="M71.91,224c-4.2,2.76-9,4.91-14.13,5a15.44,15.44,0,0,1-12.35-5.3c-3.17-3.92-3.88-9.28-2.86-14.11a20.94,20.94,0,0,1,7.08-12.13c3.46-2.7,8.47-3.74,12.49-1.64a10.3,10.3,0,0,1,1.37.88.67.67,0,1,0,.68-1.15c-3.92-3-9.54-2.7-13.65-.3-4.35,2.55-7.21,7.12-8.69,11.83-1.62,5.18-1.48,11,1.35,15.73A14.82,14.82,0,0,0,48.53,228a17.75,17.75,0,0,0,7.07,2.19c5.37.53,10.69-1.31,15.26-4,.58-.34,1.16-.7,1.73-1.08S72.63,223.48,71.91,224Z"/><path class="cls-4" d="M61.91,214.34a23.63,23.63,0,0,0-5.5-2.47,29.7,29.7,0,0,1,3.16-3,.65.65,0,0,0,0-.94.67.67,0,0,0-.94,0A29.78,29.78,0,0,0,55,211.48a23.32,23.32,0,0,0-5.83-.64.67.67,0,0,0,0,1.33,22.71,22.71,0,0,1,4.87.46,30.36,30.36,0,0,0-3.13,4.82c-.4.76.75,1.44,1.15.68A28.27,28.27,0,0,1,55.45,213a22.53,22.53,0,0,1,5.79,2.51C62,216,62.64,214.79,61.91,214.34Z"/><path class="cls-3" d="M242.57,223.51a82.48,82.48,0,0,0,7.26-20.78q.63-3,1-6.14a.71.71,0,0,1,.45-.62.77.77,0,0,1,.31-.48c3.91-3,9.54-2.7,13.65-.3,4.35,2.55,7.21,7.12,8.69,11.83,1.62,5.18,1.48,11-1.35,15.73a14.82,14.82,0,0,1-5.33,5.25,17.8,17.8,0,0,1-7.07,2.19c-5.37.53-10.69-1.31-15.26-4-.58-.34-1.16-.7-1.73-1.08a.62.62,0,0,1-.29-.65A.68.68,0,0,1,242.57,223.51Z"/><path class="cls-4" d="M243.9,224c4.2,2.76,9,4.91,14.13,5a15.44,15.44,0,0,0,12.35-5.3c3.16-3.92,3.88-9.28,2.86-14.11a20.94,20.94,0,0,0-7.08-12.13c-3.46-2.7-8.48-3.74-12.49-1.64a10.3,10.3,0,0,0-1.37.88.67.67,0,1,1-.68-1.15c3.91-3,9.54-2.7,13.65-.3,4.35,2.55,7.21,7.12,8.69,11.83,1.62,5.18,1.48,11-1.35,15.73a14.82,14.82,0,0,1-5.33,5.25,17.8,17.8,0,0,1-7.07,2.19c-5.37.53-10.69-1.31-15.26-4-.58-.34-1.16-.7-1.73-1.08S243.18,223.48,243.9,224Z"/><path class="cls-4" d="M253.9,214.34a23.63,23.63,0,0,1,5.5-2.47,29.8,29.8,0,0,0-3.17-3,.67.67,0,0,1,0-.94.69.69,0,0,1,.95,0,29.78,29.78,0,0,1,3.66,3.53,23.32,23.32,0,0,1,5.83-.64.67.67,0,0,1,0,1.33,22.71,22.71,0,0,0-4.87.46,30.36,30.36,0,0,1,3.13,4.82c.4.76-.75,1.44-1.15.68a28.79,28.79,0,0,0-3.42-5.15,22.53,22.53,0,0,0-5.79,2.51C253.84,216,253.16,214.79,253.9,214.34Z"/><path class="cls-3" d="M252.24,194a.13.13,0,0,1,0-.06,55,55,0,0,0-.07-6.16C251,171,241.9,155.32,229.38,144.31c-13.42-11.8-30.8-18.29-48.26-21.13-18-2.93-37-2.64-54.76,1.78-17,4.21-32.91,12.61-44.72,25.66C70.89,162.5,63.77,177.83,63.45,194h0c.32,16.17,7.44,31.49,18.19,43.38,11.81,13.05,27.76,21.44,44.72,25.66,17.78,4.41,36.72,4.71,54.76,1.78,17.46-2.84,34.84-9.33,48.26-21.14,12.52-11,21.61-26.64,22.8-43.46a55,55,0,0,0,.07-6.16A.13.13,0,0,1,252.24,194Z"/><path class="cls-4" d="M252.25,194.06c0-.85-1.38-.92-1.34-.06.77,16.67-6.71,32.74-18.14,44.6-12.15,12.6-28.62,20-45.55,23.71a139.17,139.17,0,0,1-26.68,3,133.75,133.75,0,0,1-27.1-2.1C116.31,260,99.67,252.92,86.9,240.85c-11.41-10.8-19.76-25.21-21.71-40.94a54.39,54.39,0,0,1-.4-5.85c0-.85-1.35-.92-1.34-.06.31,16.16,7.44,31.49,18.19,43.38,11.81,13.05,27.76,21.44,44.72,25.66,17.78,4.41,36.72,4.71,54.76,1.78,17.46-2.84,34.84-9.33,48.26-21.14,12.52-11,21.61-26.64,22.8-43.46A55,55,0,0,0,252.25,194.06Z"/><path class="cls-1" d="M267.69,160.08a103.19,103.19,0,0,0-11.88-31.18,102.18,102.18,0,0,0-50.69-44.11,116.74,116.74,0,0,0-34.66-8.14,122.58,122.58,0,0,0-35.69,2.4,118.41,118.41,0,0,0-34,13.13A103.64,103.64,0,0,0,72.37,115.9,105.84,105.84,0,0,0,54.7,147.41a129.55,129.55,0,0,0-7.21,35.9q-.27,4.49-.25,9a.67.67,0,0,0,.16.42.65.65,0,0,0-.12.56A112.57,112.57,0,0,0,65,234c.53.75,1.07,1.5,1.61,2.24a15.37,15.37,0,0,0,1.66,2c1.16,1.12,2.94,2.09,4.46,1.05,1.35-.92,1.44-2.7,1.41-4.18q0-3.21-.1-6.41-.21-12.79-.41-25.59t-.41-25.66c0-1.06,0-2.11,0-3.17a.3.3,0,0,0,0-.1,38.52,38.52,0,0,0,10-8.44c.43-.51.84-1,1.24-1.57a.54.54,0,0,0,.09-.41,48.05,48.05,0,0,0,9.15-4.59A47.07,47.07,0,0,0,105.71,148a102.59,102.59,0,0,1-4.47,19q-.84,2.46-1.78,4.86c-.57,1.43-1.08,3-.31,4.45a2.63,2.63,0,0,0,1.6,1.3,4.7,4.7,0,0,0,2.35-.14c1.41-.35,2.81-.74,4.2-1.16a85,85,0,0,0,16.07-6.79,87,87,0,0,0,14.37-9.91,83.21,83.21,0,0,0,11.35-11.71q-1.59,7.47-3.19,14.94c-.29,1.37-.65,2.75-.87,4.15a2.58,2.58,0,0,0,1.17,2.93,3.74,3.74,0,0,0,3.29-.14c1.2-.55,2.34-1.27,3.48-1.92,4.64-2.61,9.24-5.29,13.63-8.3a82.83,82.83,0,0,0,11.65-9.49,57.43,57.43,0,0,0,7-8.45q-1.31,9.78-3.34,19.44-1.14,5.35-2.48,10.67a50.88,50.88,0,0,0-1.31,5.28,5,5,0,0,0,1,4.26c1.15,1.25,2.9,1.19,4.39.67s3.09-1.31,4.59-2c3.09-1.44,6.12-3,9.07-4.69a82,82,0,0,0,15.9-11.68,60,60,0,0,0,10.82-13.69,104.14,104.14,0,0,1-.31,12.11c-.21,2.39-.49,4.77-.87,7.13-.31,2-1.14,4.51.4,6.23s3.92.28,5.51-.7a57.88,57.88,0,0,0,4.83-3.29c1.5-1.12,2.95-2.32,4.34-3.57a79.71,79.71,0,0,1-4.13,11.51q-.7,1.56-1.47,3.09a12.14,12.14,0,0,0-1.31,3,3.49,3.49,0,0,0,.43,2.62,2.62,2.62,0,0,0,2.45,1.1,7.64,7.64,0,0,0,2.8-1c.83-.44,1.65-.91,2.45-1.41,1.16-.72,2.28-1.5,3.37-2.33l-.3,18.77q-.21,12.8-.41,25.59c0,2.13-.07,4.27-.11,6.41,0,1.48.06,3.26,1.41,4.18,1.52,1,3.31.07,4.46-1.05a14.69,14.69,0,0,0,1.67-2c.54-.74,1.08-1.49,1.6-2.24a112.82,112.82,0,0,0,17.74-40.72.62.62,0,0,0,0-.36A93.17,93.17,0,0,0,267.69,160.08Z"/><path class="cls-2" d="M267.19,192.92c-.19.88-.38,1.75-.59,2.62A110.32,110.32,0,0,1,259.53,216a111.93,111.93,0,0,1-10.86,18.64c-.94,1.3-1.93,3-3.47,3.64a1.42,1.42,0,0,1-1.67-.25,2.86,2.86,0,0,1-.58-1.78c-.06-.91,0-1.85,0-2.77s0-2.05,0-3.08c0-2.08.07-4.16.11-6.25l.39-24.83.26-16a44,44,0,0,0,7.58-8.09A42.7,42.7,0,0,0,257.16,164c.28-.82-1-1.17-1.29-.36a42.18,42.18,0,0,1-11.6,17.46,41.25,41.25,0,0,1-8.68,6,3.75,3.75,0,0,1-2.43.65,1.51,1.51,0,0,1-1-1.67,7.13,7.13,0,0,1,1.07-2.76c.49-1,1-2,1.42-3a81.5,81.5,0,0,0,4.83-13.66.64.64,0,0,0,0-.46c1-.93,1.91-1.89,2.81-2.89a63,63,0,0,0,7.89-10.76.67.67,0,0,0-1.15-.68,62.09,62.09,0,0,1-14.6,17c-1.47,1.19-3,2.3-4.58,3.35-.8.53-1.6,1-2.42,1.52a4.33,4.33,0,0,1-2.55,1,1.78,1.78,0,0,1-1.25-1.67,12.45,12.45,0,0,1,.39-3.38q.54-3.36.87-6.75a104.05,104.05,0,0,0,.31-15.29.41.41,0,0,0,0-.16c.17-.33.33-.65.48-1,.37-.77-.78-1.45-1.15-.67A56,56,0,0,1,214,160.8a76.6,76.6,0,0,1-14.89,11.76c-2.79,1.72-5.67,3.29-8.6,4.75q-2.17,1.08-4.4,2.09c-.77.34-1.53.7-2.3,1a5.7,5.7,0,0,1-2.18.55,2.41,2.41,0,0,1-2.24-2.55,8.29,8.29,0,0,1,.36-2.51c.22-.85.45-1.71.67-2.57q1.34-5.15,2.46-10.34,2.26-10.42,3.7-21l.33-2.59a.41.41,0,0,0,0-.27l.24-.4c.31-.53.6-1.06.88-1.6.4-.76-.75-1.44-1.15-.68-4.36,8.31-11.21,15-18.75,20.45a144.7,144.7,0,0,1-12.87,8.16L151.82,167a27.06,27.06,0,0,1-3.18,1.72c-.72.28-2,.43-2.32-.55a3.58,3.58,0,0,1,.16-1.62l.42-1.95q1.92-9.06,3.86-18.11a.63.63,0,0,0-.13-.56l.45-.59a.68.68,0,0,0-.24-.92.7.7,0,0,0-.92.24,82.17,82.17,0,0,1-11.33,12.46,85.45,85.45,0,0,1-13.59,10,84.39,84.39,0,0,1-15.29,7.06c-1.33.46-2.68.89-4,1.28-.68.19-1.36.38-2,.55a8.49,8.49,0,0,1-2.11.42c-1.54,0-1.58-1.79-1.25-2.89.24-.78.57-1.53.86-2.29s.59-1.56.87-2.35a103.57,103.57,0,0,0,4.85-19.46c.13-.84.24-1.67.34-2.51a.6.6,0,0,0-.29-.55c.14-.21.29-.42.43-.64.47-.72-.68-1.39-1.15-.67A44.93,44.93,0,0,1,94.7,156.85a46.79,46.79,0,0,1-15,7.05,43,43,0,0,1-8.13,1.37c-.66,0-3.09.42-2.6-.93a7.46,7.46,0,0,1,1.4-1.91L72,160.49a201.78,201.78,0,0,0,12.61-16.26,71.93,71.93,0,0,0,8.79-17.3c.25-.76.49-1.52.7-2.28a.66.66,0,0,0-1.28-.35,67.08,67.08,0,0,1-8.58,18.07,182.46,182.46,0,0,1-12.83,16.75l-1.67,2a24.65,24.65,0,0,0-1.64,2,2.43,2.43,0,0,0-.36,2.29,2.07,2.07,0,0,0,1.54,1.14,7.29,7.29,0,0,0,2,0c.72,0,1.45-.11,2.17-.19,1.43-.17,2.86-.39,4.27-.69a48.34,48.34,0,0,0,4.76-1.27,37.92,37.92,0,0,1-25.19,13.64c-.64.07-1.29.11-1.94.15a4.11,4.11,0,0,1-1.75-.08,1,1,0,0,1-.35-1.22,5,5,0,0,1,1-1.56q2.73-3.3,5.16-6.83a98,98,0,0,0,8.33-14.7,98.68,98.68,0,0,0,5.7-16c.18-.67.34-1.34.5-2s-1.09-1.19-1.29-.35a96.38,96.38,0,0,1-5.57,16.6,96.76,96.76,0,0,1-8.5,15.33q-2.47,3.65-5.27,7c-.85,1-1.81,2.2-1.41,3.62a2,2,0,0,0,1.31,1.4,5.55,5.55,0,0,0,2,.13,38.7,38.7,0,0,0,15.34-4c.42-.2.83-.42,1.24-.64l.39,24.36q.21,12.42.4,24.83c0,2.09.07,4.17.1,6.25,0,1,0,2.06.05,3.08s.07,1.86,0,2.77a2.85,2.85,0,0,1-.57,1.78,1.44,1.44,0,0,1-1.68.25c-1.54-.65-2.52-2.34-3.46-3.64a110.74,110.74,0,0,1-17.93-39.08c-.21-.87-.41-1.74-.6-2.62s-1.46-.48-1.28.36A112.57,112.57,0,0,0,65,234c.53.75,1.07,1.5,1.61,2.24a15.37,15.37,0,0,0,1.66,2c1.16,1.12,2.94,2.09,4.46,1.05,1.35-.92,1.44-2.7,1.41-4.18q0-3.21-.1-6.41-.21-12.79-.41-25.59t-.41-25.66c0-1.06,0-2.11,0-3.17a.3.3,0,0,0,0-.1,38.52,38.52,0,0,0,10-8.44c.43-.51.84-1,1.24-1.57a.54.54,0,0,0,.09-.41,48.05,48.05,0,0,0,9.15-4.59A47.07,47.07,0,0,0,105.71,148a102.59,102.59,0,0,1-4.47,19q-.84,2.46-1.78,4.86c-.57,1.43-1.08,3-.31,4.45a2.63,2.63,0,0,0,1.6,1.3,4.7,4.7,0,0,0,2.35-.14c1.41-.35,2.81-.74,4.2-1.16a85,85,0,0,0,16.07-6.79,87,87,0,0,0,14.37-9.91,83.21,83.21,0,0,0,11.35-11.71q-1.59,7.47-3.19,14.94c-.29,1.37-.65,2.75-.87,4.15a2.58,2.58,0,0,0,1.17,2.93,3.74,3.74,0,0,0,3.29-.14c1.2-.55,2.34-1.27,3.48-1.92,4.64-2.61,9.24-5.29,13.63-8.3a82.83,82.83,0,0,0,11.65-9.49,57.43,57.43,0,0,0,7-8.45q-1.31,9.78-3.34,19.44-1.14,5.35-2.48,10.67a50.88,50.88,0,0,0-1.31,5.28,5,5,0,0,0,1,4.26c1.15,1.25,2.9,1.19,4.39.67s3.09-1.31,4.59-2c3.09-1.44,6.12-3,9.07-4.69a82,82,0,0,0,15.9-11.68,60,60,0,0,0,10.82-13.69,104.14,104.14,0,0,1-.31,12.11c-.21,2.39-.49,4.77-.87,7.13-.31,2-1.14,4.51.4,6.23s3.92.28,5.51-.7a57.88,57.88,0,0,0,4.83-3.29c1.5-1.12,2.95-2.32,4.34-3.57a79.71,79.71,0,0,1-4.13,11.51q-.7,1.56-1.47,3.09a12.14,12.14,0,0,0-1.31,3,3.49,3.49,0,0,0,.43,2.62,2.62,2.62,0,0,0,2.45,1.1,7.64,7.64,0,0,0,2.8-1c.83-.44,1.65-.91,2.45-1.41,1.16-.72,2.28-1.5,3.37-2.33l-.3,18.77q-.21,12.8-.41,25.59c0,2.13-.07,4.27-.11,6.41,0,1.48.06,3.26,1.41,4.18,1.52,1,3.31.07,4.46-1.05a14.69,14.69,0,0,0,1.67-2c.54-.74,1.08-1.49,1.6-2.24a112.82,112.82,0,0,0,17.74-40.72C268.66,192.44,267.37,192.08,267.19,192.92Z"/><path class="cls-5" d="M137,67.65a4.13,4.13,0,0,0-2.61-1.27,8.94,8.94,0,0,0-3.48.42c-1.16.32-2.32.66-3.47,1q-3.45,1.05-6.86,2.25A279.34,279.34,0,0,0,93.91,81.25C89,83.57,84.07,86,79.17,88.37a.72.72,0,0,0-.21.16.74.74,0,0,0-.4.07,74,74,0,0,0-13.38,8.66A72.47,72.47,0,0,0,54,108.58c-.83,1-1.64,2.12-2.41,3.22a8.86,8.86,0,0,0-1.86,3.71,3.37,3.37,0,0,0,1.11,3.14c1.18.95,2.68.53,3.89-.13,2.75-1.51,5.32-3.32,8.06-4.84.72-.4,2-1.05,2.79-.45s.18,2.47-.06,3.35l-1.29,4.66a25.17,25.17,0,0,0-1.07,4.6,5,5,0,0,0,1,3.68,3.36,3.36,0,0,0,3.37,1.17,8.26,8.26,0,0,0,3.5-2.24q1.61-1.5,3.09-3.12c2-2.17,3.83-4.45,5.69-6.73,3.51-4.3,7.18-8.46,11.08-12.42s7.9-7.66,12.11-11.2,8.58-6.86,13.11-10,9.17-6,14-8.65c1.18-.66,2.37-1.3,3.57-1.93a.7.7,0,0,0,.25-.23,4.8,4.8,0,0,0,3.86-3.71A3.4,3.4,0,0,0,137,67.65Z"/><path class="cls-6" d="M133,73.28q-7.14,3.75-13.92,8.16t-13.18,9.49q-6.33,5-12.17,10.61T82.62,113.23c-3.71,4.29-7.07,8.89-11.07,12.9a17.63,17.63,0,0,1-3.15,2.77,2.33,2.33,0,0,1-3.1-.14,4,4,0,0,1-.73-3.45c.26-1.53.77-3,1.18-4.52s.83-3,1.25-4.5c.31-1.13.63-2.51-.09-3.57-1.65-2.39-4.85-.16-6.58.88l-4,2.44c-.65.4-1.3.8-2,1.18a3.84,3.84,0,0,1-1.83.67c-1.09,0-1.56-1.19-1.45-2.13a8.37,8.37,0,0,1,1.87-3.51A72.3,72.3,0,0,1,75.84,91.57c1.11-.63,2.25-1.24,3.39-1.81.77-.39.09-1.54-.67-1.16a74,74,0,0,0-13.38,8.66A72.47,72.47,0,0,0,54,108.58c-.83,1-1.64,2.12-2.41,3.22a8.86,8.86,0,0,0-1.86,3.71,3.37,3.37,0,0,0,1.11,3.14c1.18.95,2.68.53,3.89-.13,2.75-1.51,5.32-3.32,8.06-4.84.72-.4,2-1.05,2.79-.45s.18,2.47-.06,3.35l-1.29,4.66a25.17,25.17,0,0,0-1.07,4.6,5,5,0,0,0,1,3.68,3.36,3.36,0,0,0,3.37,1.17,8.26,8.26,0,0,0,3.5-2.24q1.61-1.5,3.09-3.12c2-2.17,3.83-4.45,5.69-6.73,3.51-4.3,7.18-8.46,11.08-12.42s7.9-7.66,12.11-11.2,8.58-6.86,13.11-10,9.17-6,14-8.65c1.18-.66,2.37-1.3,3.57-1.93C134.45,74,133.77,72.88,133,73.28Z"/><path class="cls-5" d="M150.79,55.43a155.32,155.32,0,0,0-16.88-12c-5.69-3.51-11.65-6.87-18.11-8.73a30,30,0,0,0-18.07,0,20.42,20.42,0,0,0-7.43,4.45,17.89,17.89,0,0,0-4.41,6.82,16.14,16.14,0,0,0-.84,8,11.87,11.87,0,0,0,3.76,7.21,7.85,7.85,0,0,0,1.81,1.16h0a68.18,68.18,0,0,0-5,6.89,63.16,63.16,0,0,0-4.39,8.34c-.62,1.45-1.2,2.91-1.7,4.4a23.4,23.4,0,0,0-1.2,4.43,6.47,6.47,0,0,0,.63,4.26,5.22,5.22,0,0,0,3.66,2.32,10.63,10.63,0,0,0,5.05-.65c1.69-.55,3.35-1.2,5-1.89,6.48-2.73,12.55-6.29,18.8-9.49s12.55-6,19.38-7.19c.84-.14,1.67-.26,2.52-.36a.67.67,0,0,0,.67-.66h0l0-.08a25.15,25.15,0,0,1,11.48-13.84,24.13,24.13,0,0,1,4.76-2,.62.62,0,0,0,.43-.43A.56.56,0,0,0,150.79,55.43Z"/><path class="cls-7" d="M135,53.09a36.18,36.18,0,0,0-16.12-3.9c-4.51.08-12,1.77-13,7.1-1.21,6.35,8.86,9.49,13.41,10.45a50.07,50.07,0,0,0,17.14.29,34.7,34.7,0,0,1,8.05-7.81A41.48,41.48,0,0,0,135,53.09Z"/><path class="cls-6" d="M150.79,55.43a155.32,155.32,0,0,0-16.88-12c-5.69-3.51-11.65-6.87-18.11-8.73a30,30,0,0,0-18.07,0,20.42,20.42,0,0,0-7.43,4.45,17.89,17.89,0,0,0-4.41,6.82,16.14,16.14,0,0,0-.84,8,11.87,11.87,0,0,0,3.76,7.21,7.85,7.85,0,0,0,1.81,1.16h0a68.18,68.18,0,0,0-5,6.89,63.16,63.16,0,0,0-4.39,8.34c-.62,1.45-1.2,2.91-1.7,4.4a23.4,23.4,0,0,0-1.2,4.43,6.47,6.47,0,0,0,.63,4.26,5.22,5.22,0,0,0,3.66,2.32,10.63,10.63,0,0,0,5.05-.65c1.69-.55,3.35-1.2,5-1.89,6.48-2.73,12.55-6.29,18.8-9.49s12.55-6,19.38-7.19c.84-.14,1.67-.26,2.52-.36a.67.67,0,1,0,0-1.33c-6.76.74-13.15,3.14-19.24,6.06S102.14,84.55,96,87.5a59.46,59.46,0,0,1-9.51,3.79,7,7,0,0,1-4.54,0,3.56,3.56,0,0,1-2.22-3,10.63,10.63,0,0,1,.61-4.14c.45-1.47.95-2.92,1.52-4.35a59,59,0,0,1,4-8.19A67.91,67.91,0,0,1,97.11,57.2c.54-.53,1.1-1.05,1.66-1.56s-.31-1.52-1-.94a74.21,74.21,0,0,0-6.33,6.58.55.55,0,0,0-.19-.15c-2.46-1.11-4-3.62-4.66-6.14a14.07,14.07,0,0,1,.12-7.37,16.53,16.53,0,0,1,3.64-6.69A18.26,18.26,0,0,1,97,36.36a27.48,27.48,0,0,1,17-.81c6.29,1.56,12.06,4.67,17.58,8a151,151,0,0,1,16.33,11.29c.65.51,1.29,1,1.93,1.56S151.45,56,150.79,55.43Z"/><path class="cls-5" d="M172.9,67.65a4.13,4.13,0,0,1,2.61-1.27,9,9,0,0,1,3.48.42c1.16.32,2.31.66,3.47,1q3.45,1.05,6.86,2.25A280.24,280.24,0,0,1,216,81.25c4.94,2.32,9.84,4.72,14.74,7.12a.72.72,0,0,1,.21.16.76.76,0,0,1,.41.07,73.88,73.88,0,0,1,13.37,8.66,72.47,72.47,0,0,1,11.17,11.32c.84,1,1.64,2.12,2.41,3.22a9,9,0,0,1,1.87,3.71,3.42,3.42,0,0,1-1.11,3.14c-1.19.95-2.68.53-3.89-.13-2.75-1.51-5.33-3.32-8.07-4.84-.72-.4-2-1.05-2.78-.45-.93.73-.19,2.47.05,3.35l1.29,4.66a25.17,25.17,0,0,1,1.07,4.6,5,5,0,0,1-1,3.68,3.37,3.37,0,0,1-3.37,1.17,8.14,8.14,0,0,1-3.5-2.24c-1.08-1-2.1-2-3.1-3.12-2-2.17-3.83-4.45-5.68-6.73-3.52-4.3-7.19-8.46-11.09-12.42s-7.89-7.66-12.11-11.2-8.58-6.86-13.1-10-9.18-6-14-8.65c-1.19-.66-2.38-1.3-3.57-1.93a.56.56,0,0,1-.25-.23,4.8,4.8,0,0,1-3.87-3.71A3.44,3.44,0,0,1,172.9,67.65Z"/><path class="cls-6" d="M176.89,73.28Q184,77,190.82,81.44T204,90.93c4.22,3.35,8.29,6.89,12.17,10.61s7.6,7.62,11.13,11.69c3.7,4.29,7.06,8.89,11.06,12.9a17.63,17.63,0,0,0,3.15,2.77,2.33,2.33,0,0,0,3.1-.14,4,4,0,0,0,.73-3.45c-.26-1.53-.77-3-1.18-4.52s-.83-3-1.24-4.5c-.32-1.13-.64-2.51.09-3.57,1.65-2.39,4.84-.16,6.57.88l4.05,2.44c.66.4,1.3.8,2,1.18a3.84,3.84,0,0,0,1.84.67c1.08,0,1.55-1.19,1.44-2.13a8.37,8.37,0,0,0-1.87-3.51,72,72,0,0,0-22.93-20.68c-1.11-.63-2.24-1.24-3.39-1.81-.77-.39-.09-1.54.68-1.16a73.88,73.88,0,0,1,13.37,8.66,72.47,72.47,0,0,1,11.17,11.32c.84,1,1.64,2.12,2.41,3.22a9,9,0,0,1,1.87,3.71,3.42,3.42,0,0,1-1.11,3.14c-1.19.95-2.68.53-3.89-.13-2.75-1.51-5.33-3.32-8.07-4.84-.72-.4-2-1.05-2.78-.45-.93.73-.19,2.47.05,3.35l1.29,4.66a25.17,25.17,0,0,1,1.07,4.6,5,5,0,0,1-1,3.68,3.37,3.37,0,0,1-3.37,1.17,8.14,8.14,0,0,1-3.5-2.24c-1.08-1-2.1-2-3.1-3.12-2-2.17-3.83-4.45-5.68-6.73-3.52-4.3-7.19-8.46-11.09-12.42s-7.89-7.66-12.11-11.2-8.58-6.86-13.1-10-9.18-6-14-8.65c-1.19-.66-2.38-1.3-3.57-1.93C175.46,74,176.13,72.88,176.89,73.28Z"/><path class="cls-5" d="M159.12,55.43a155.2,155.2,0,0,1,16.87-12c5.69-3.51,11.65-6.87,18.12-8.73a29.92,29.92,0,0,1,18.06,0,20.55,20.55,0,0,1,7.44,4.45A18.12,18.12,0,0,1,224,45.94a16.26,16.26,0,0,1,.83,8,11.87,11.87,0,0,1-3.76,7.21,7.65,7.65,0,0,1-1.81,1.16h0a68.18,68.18,0,0,1,4.95,6.89,61.93,61.93,0,0,1,4.38,8.34c.63,1.45,1.2,2.91,1.71,4.4a24.17,24.17,0,0,1,1.2,4.43,6.42,6.42,0,0,1-.64,4.26,5.2,5.2,0,0,1-3.65,2.32,10.67,10.67,0,0,1-5.06-.65c-1.69-.55-3.35-1.2-5-1.89-6.48-2.73-12.55-6.29-18.8-9.49s-12.54-6-19.38-7.19c-.83-.14-1.67-.26-2.51-.36a.67.67,0,0,1-.67-.66h0s0,0,0-.08a25.15,25.15,0,0,0-11.48-13.84,24.3,24.3,0,0,0-4.75-2,.63.63,0,0,1-.44-.43A.56.56,0,0,1,159.12,55.43Z"/><path class="cls-7" d="M174.9,53.09A36.17,36.17,0,0,1,191,49.19c4.52.08,12,1.77,13,7.1,1.22,6.35-8.85,9.49-13.41,10.45a50.07,50.07,0,0,1-17.14.29,34.7,34.7,0,0,0-8.05-7.81A41.33,41.33,0,0,1,174.9,53.09Z"/><path class="cls-6" d="M159.12,55.43a155.2,155.2,0,0,1,16.87-12c5.69-3.51,11.65-6.87,18.12-8.73a29.92,29.92,0,0,1,18.06,0,20.55,20.55,0,0,1,7.44,4.45A18.12,18.12,0,0,1,224,45.94a16.26,16.26,0,0,1,.83,8,11.87,11.87,0,0,1-3.76,7.21,7.65,7.65,0,0,1-1.81,1.16h0a68.18,68.18,0,0,1,4.95,6.89,61.93,61.93,0,0,1,4.38,8.34c.63,1.45,1.2,2.91,1.71,4.4a24.17,24.17,0,0,1,1.2,4.43,6.42,6.42,0,0,1-.64,4.26,5.2,5.2,0,0,1-3.65,2.32,10.67,10.67,0,0,1-5.06-.65c-1.69-.55-3.35-1.2-5-1.89-6.48-2.73-12.55-6.29-18.8-9.49s-12.54-6-19.38-7.19c-.83-.14-1.67-.26-2.51-.36a.67.67,0,1,1,0-1.33c6.75.74,13.14,3.14,19.23,6.06S207.77,84.55,214,87.5a59.56,59.56,0,0,0,9.52,3.79,7,7,0,0,0,4.53,0,3.55,3.55,0,0,0,2.23-3,10.64,10.64,0,0,0-.62-4.14c-.44-1.47-1-2.92-1.51-4.35a59,59,0,0,0-4-8.19A67.28,67.28,0,0,0,212.79,57.2q-.81-.8-1.65-1.56c-.64-.58.31-1.52.94-.94a72.92,72.92,0,0,1,6.34,6.58.47.47,0,0,1,.19-.15A9.14,9.14,0,0,0,223.26,55a14.07,14.07,0,0,0-.11-7.37,16.67,16.67,0,0,0-3.65-6.69,18.17,18.17,0,0,0-6.64-4.57,27.47,27.47,0,0,0-17-.81c-6.29,1.56-12.06,4.67-17.58,8A151,151,0,0,0,162,54.82c-.64.51-1.29,1-1.93,1.56S158.45,56,159.12,55.43Z"/><path class="cls-5" d="M173.61,58.92c-2.79-2.19-6.39-2.92-9.84-3.25a65.26,65.26,0,0,0-13,0c-4,.41-8.2,1.21-11.76,3.22a13.09,13.09,0,0,0-4.25,3.72,11.92,11.92,0,0,0-2.06,5.25,14.71,14.71,0,0,0,3,10.88,17.7,17.7,0,0,0,1.9,2.15.54.54,0,0,0,.3.17.76.76,0,0,0,.47.49,48.89,48.89,0,0,0,25.41,3c3.78-.57,7.66-1.86,10.17-4.9a17.72,17.72,0,0,0,3.64-10.69C177.75,65.16,176.67,61.31,173.61,58.92Z"/><path class="cls-6" d="M173.61,58.92c-2.79-2.19-6.39-2.92-9.84-3.25a65.26,65.26,0,0,0-13,0c-4,.41-8.2,1.21-11.76,3.22a13.09,13.09,0,0,0-4.25,3.72,11.92,11.92,0,0,0-2.06,5.25,14.71,14.71,0,0,0,3,10.88,17.7,17.7,0,0,0,1.9,2.15.54.54,0,0,0,.3.17.76.76,0,0,0,.47.49,48.89,48.89,0,0,0,25.41,3c3.78-.57,7.66-1.86,10.17-4.9a17.72,17.72,0,0,0,3.64-10.69C177.75,65.16,176.67,61.31,173.61,58.92Zm.5,18.19a10.74,10.74,0,0,1-3.63,3.8,16.28,16.28,0,0,1-5,1.93,42.07,42.07,0,0,1-11.85.77,47.65,47.65,0,0,1-12-2.32c-1-.32-1.92-.67-2.86-1.05a.69.69,0,0,0-.19-.31,14.61,14.61,0,0,1-4.64-9.49,11,11,0,0,1,4.11-9.32c2.93-2.28,6.75-3.23,10.34-3.82a59.54,59.54,0,0,1,12.87-.47c3.25.17,6.68.47,9.64,2a9.52,9.52,0,0,1,3.61,3,10.5,10.5,0,0,1,1.72,5A17.71,17.71,0,0,1,174.11,77.11Z"/><g id="_16" data-name="16"><ellipse class="cls-8" cx="108.4" cy="202.59" rx="14.69" ry="6.18"/><path d="M127.36,193.4a12.7,12.7,0,0,0,1.4-5.83A12.86,12.86,0,1,0,106.24,196C113.11,194.19,120.38,192.68,127.36,193.4Z"/><circle class="cls-9" cx="112.07" cy="181.39" r="2.67"/><path d="M119,161.94a35.06,35.06,0,0,0-13.78,3.72c-.76.39-.09,1.54.68,1.16a33.13,33.13,0,0,1,13.1-3.54C119.86,163.23,119.86,161.89,119,161.94Z"/><ellipse class="cls-8" cx="207.23" cy="202.59" rx="14.69" ry="6.18"/><path d="M210,195.3a12.85,12.85,0,1,0-20.61-.1A47.91,47.91,0,0,1,210,195.3Z"/><circle class="cls-9" cx="195.88" cy="181.39" r="2.67"/><path d="M198.35,164.34a23,23,0,0,0-10.49-3.51c-.85-.07-.85,1.26,0,1.33a21.66,21.66,0,0,1,9.82,3.33C198.41,166,199.08,164.8,198.35,164.34Z"/><path d="M162.64,215.87a8.11,8.11,0,0,1-.24-4.9,10.74,10.74,0,0,0,.1-4.3,4.3,4.3,0,0,0-2.55-3.18.67.67,0,1,0-.36,1.29A3,3,0,0,1,161.2,207a8.72,8.72,0,0,1-.07,3.56,11.16,11.16,0,0,0-.15,4.67c.35,1.34,1.23,2.47,1.57,3.8.22.86.08,2.22-.92,2.51a.67.67,0,0,0,.36,1.29,3,3,0,0,0,2-2.83C164.07,218.47,163.23,217.18,162.64,215.87Z"/></g></svg>